<?xml version="1.0" encoding="UTF-8" standalone="no"?>
<!-- Created with Inkscape (http://www.inkscape.org/) -->

<svg
   version="1.1"
   id="svg1"
   width="1001.3867"
   height="348.66666"
   viewBox="0 0 1001.3867 348.66666"
   sodipodi:docname="sonny_logo_black.eps"
   xmlns:inkscape="http://www.inkscape.org/namespaces/inkscape"
   xmlns:sodipodi="http://sodipodi.sourceforge.net/DTD/sodipodi-0.dtd"
   xmlns="http://www.w3.org/2000/svg"
   xmlns:svg="http://www.w3.org/2000/svg">
  <defs
     id="defs1" />
  <sodipodi:namedview
     id="namedview1"
     pagecolor="#ffffff"
     bordercolor="#000000"
     borderopacity="0.25"
     inkscape:showpageshadow="2"
     inkscape:pageopacity="0.0"
     inkscape:pagecheckerboard="0"
     inkscape:deskcolor="#d1d1d1">
    <inkscape:page
       x="0"
       y="0"
       inkscape:label="1"
       id="page1"
       width="1001.3867"
       height="348.66666"
       margin="0"
       bleed="0" />
  </sodipodi:namedview>
  <g
     id="g1"
     inkscape:groupmode="layer"
     inkscape:label="1">
    <g
       id="group-R5">
      <path
         id="path2"
         d="m 1503.41,1477.53 c -11.1,27.11 -70.25,65.32 -140.49,65.32 -66.54,0 -115.83,-8.63 -115.83,-48.07 0,-121.99 662.98,3.7 662.98,-330.25 0,-120.76 -78.87,-293.292 -486.76,-293.292 -390.64,0 -552.072,123.231 -552.072,298.222 l 410.352,-14.79 c 14.79,-27.11 55.45,-71.47 155.28,-71.47 62.84,0 103.5,24.64 103.5,54.22 0,98.58 -661.737,30.8 -661.737,316.7 0,218.11 256.317,288.36 474.437,288.36 319.16,0 492.92,-69.01 529.89,-272.34 l -379.55,7.39"
         style="fill:#231f20;fill-opacity:1;fill-rule:nonzero;stroke:none"
         transform="matrix(0.13333333,0,0,-0.13333333,0,348.66667)" />
      <path
         id="path3"
         d="m 2539.73,1085.66 c 131.85,0 215.65,78.87 215.65,223.05 0,124.46 -71.47,220.58 -215.65,220.58 -133.09,0 -215.65,-73.94 -215.65,-220.58 0,-138.02 76.4,-223.05 215.65,-223.05 z m 0,658.05 c 324.1,0 557,-152.8 557,-436.23 0,-308.082 -232.9,-436.242 -557,-436.242 -329.03,0 -555.77,128.16 -555.77,436.242 0,282.19 195.94,436.23 555.77,436.23"
         style="fill:#231f20;fill-opacity:1;fill-rule:nonzero;stroke:none"
         transform="matrix(0.13333333,0,0,-0.13333333,0,348.66667)" />
      <path
         id="path4"
         d="M 3525.54,1332.12 V 876.172 h -332.72 v 862.608 h 375.85 l 353.66,-441.16 v 441.16 h 332.73 V 876.172 h -359.84 l -369.68,455.948"
         style="fill:#231f20;fill-opacity:1;fill-rule:nonzero;stroke:none"
         transform="matrix(0.13333333,0,0,-0.13333333,0,348.66667)" />
      <path
         id="path5"
         d="M 4710.97,1332.12 V 876.172 h -332.73 v 862.608 h 375.86 l 353.66,-441.16 v 441.16 h 332.73 V 876.172 h -359.84 l -369.68,455.948"
         style="fill:#231f20;fill-opacity:1;fill-rule:nonzero;stroke:none"
         transform="matrix(0.13333333,0,0,-0.13333333,0,348.66667)" />
      <path
         id="path6"
         d="M 5516.85,1738.78 H 5889 l 184.85,-322.86 197.17,322.86 h 348.74 L 6227.89,1110.31 V 876.172 h -326.56 v 234.138 l -384.48,628.47"
         style="fill:#231f20;fill-opacity:1;fill-rule:nonzero;stroke:none"
         transform="matrix(0.13333333,0,0,-0.13333333,0,348.66667)" />
    </g>
  </g>
</svg>
